<svg xmlns="http://www.w3.org/2000/svg" viewBox="0 0 512 512" role="img" aria-label="Skybridge logo">
  <defs>
    <linearGradient id="sky" x1="0" y1="0" x2="1" y2="1">
      <stop offset="0%" stop-color="#7dd3fc"/>
      <stop offset="100%" stop-color="#38bdf8"/>
    </linearGradient>
    <linearGradient id="bridge" x1="0" y1="0" x2="0" y2="1">
      <stop offset="0%" stop-color="#0f172a"/>
      <stop offset="100%" stop-color="#1e293b"/>
    </linearGradient>
  </defs>
  <rect width="512" height="512" rx="96" fill="url(#sky)"/>
  <circle cx="380" cy="140" r="48" fill="#e0f2fe" opacity="0.9"/>
  <path d="M80 332c56-76 132-114 228-114 92 0 152 34 204 96" fill="none" stroke="#e0f2fe" stroke-width="36" stroke-linecap="round"/>
  <path d="M120 352c44-56 104-84 180-84 72 0 122 26 168 72" fill="none" stroke="#bae6fd" stroke-width="24" stroke-linecap="round"/>
  <path d="M92 360c64-64 152-96 264-96 92 0 152 28 220 88" fill="none" stroke="#0f172a" stroke-width="28" stroke-linecap="round"/>
  <path d="M92 360v104h36V372c0-12 8-20 20-20h16v112h36V352h40v112h36V352h40v112h36V352h40v112h36V352h16c12 0 20 8 20 20v92h36V360" fill="url(#bridge)"/>
</svg>
